<?xml version="1.0" encoding="iso-8859-1"?>
<!-- Generator: Adobe Illustrator 18.0.0, SVG Export Plug-In . SVG Version: 6.00 Build 0)  -->
<!DOCTYPE svg PUBLIC "-//W3C//DTD SVG 1.1//EN" "http://www.w3.org/Graphics/SVG/1.1/DTD/svg11.dtd">
<svg xmlns="http://www.w3.org/2000/svg" xmlns:xlink="http://www.w3.org/1999/xlink" version="1.1" id="Capa_1" x="0px" y="0px" viewBox="0 0 453.901 453.901" style="enable-background:new 0 0 453.901 453.901;" xml:space="preserve" width="512px" height="512px">
<g>
	<g>
		<g>
			<g>
				<g>
					<g>
						<g>
							<path d="M177.212,123.794c-1.28,0-2.559-0.488-3.536-1.465c-1.953-1.952-1.953-5.118,0-7.07l22.912-22.913         c1.953-1.953,5.118-1.953,7.071,0c1.953,1.952,1.953,5.118,0,7.07l-22.912,22.913         C179.771,123.306,178.491,123.794,177.212,123.794z" fill="#FFDA44"/>
						</g>
						<g>
							<path d="M200.124,123.794c-1.28,0-2.559-0.488-3.536-1.465l-22.912-22.913c-1.953-1.952-1.953-5.118,0-7.07         c1.954-1.953,5.119-1.952,7.071,0l22.912,22.913c1.953,1.952,1.953,5.118,0,7.07         C202.683,123.306,201.403,123.794,200.124,123.794z" fill="#FFDA44"/>
						</g>
					</g>
				</g>
				<g>
					<g>
						<g>
							<path d="M265.233,138.18c-17.006,0-30.842-13.835-30.842-30.841c0-17.007,13.836-30.843,30.842-30.843         c17.006,0,30.842,13.836,30.842,30.843C296.075,124.345,282.239,138.18,265.233,138.18z M265.233,86.496         c-11.492,0-20.842,9.35-20.842,20.843c0,11.491,9.35,20.841,20.842,20.841c11.492,0,20.842-9.35,20.842-20.841         C286.075,95.846,276.725,86.496,265.233,86.496z" fill="#FFDA44"/>
						</g>
					</g>
					<path d="M272.304,107.338l5.282-5.282c1.953-1.952,1.953-5.118,0-7.07c-1.951-1.953-5.119-1.953-7.07,0l-5.282,5.282       l-5.282-5.282c-1.951-1.953-5.119-1.953-7.07,0c-1.953,1.952-1.953,5.118,0,7.07l5.282,5.282l-5.282,5.282       c-1.953,1.952-1.953,5.118,0,7.07c0.976,0.977,2.256,1.465,3.535,1.465c1.279,0,2.56-0.488,3.535-1.465l5.282-5.282       l5.282,5.282c0.975,0.977,2.256,1.465,3.535,1.465s2.56-0.488,3.535-1.465c1.953-1.952,1.953-5.118,0-7.07L272.304,107.338z" fill="#FFDA44"/>
				</g>
			</g>
			<path d="M277.462,160.159l-2.258-3.254c1.779-1.771,2.003-4.62,0.405-6.633c-1.462-1.842-3.951-2.36-5.994-1.423l-2.694-3.884     c-1.575-2.269-4.688-2.832-6.959-1.258c-2.268,1.574-2.832,4.69-1.258,6.959l2.339,3.37c-2.688,1.27-5.665,2.379-8.855,3.317     l-1.588-4.704c-0.883-2.618-3.725-4.021-6.336-3.139c-2.617,0.883-4.021,3.72-3.139,6.336l1.26,3.731     c-3.366,0.551-6.867,0.915-10.436,1.098v-5.264c0-2.762-2.238-5-5-5c-2.761,0-5,2.238-5,5v5.264     c-3.569-0.183-7.071-0.547-10.437-1.099l1.259-3.73c0.883-2.616-0.522-5.453-3.138-6.336c-2.616-0.881-5.453,0.521-6.336,3.139     l-1.588,4.704c-3.189-0.938-6.167-2.047-8.853-3.316l2.339-3.371c1.574-2.269,1.011-5.385-1.257-6.959     c-2.27-1.572-5.384-1.011-6.959,1.258l-2.695,3.885c-2.044-0.938-4.535-0.415-5.995,1.424c-1.598,2.013-1.374,4.861,0.405,6.633     l-2.256,3.252c-1.574,2.269-1.011,5.385,1.257,6.959c0.87,0.603,1.863,0.892,2.846,0.892c1.583,0,3.141-0.75,4.112-2.149     l2.443-3.52c3.451,1.755,7.283,3.265,11.41,4.504l-1.123,3.327c-0.883,2.616,0.522,5.453,3.138,6.336     c0.53,0.179,1.069,0.264,1.6,0.264c2.086,0,4.033-1.315,4.737-3.402l1.417-4.2c4.383,0.792,8.968,1.306,13.674,1.521v3.216     c0,2.762,2.239,5,5,5c2.762,0,5-2.238,5-5v-3.216c4.705-0.214,9.29-0.729,13.672-1.521l1.418,4.2     c0.704,2.087,2.65,3.402,4.736,3.402c0.53,0,1.07-0.085,1.6-0.264c2.617-0.883,4.021-3.72,3.139-6.336l-1.123-3.327     c4.127-1.239,7.959-2.749,11.41-4.505l2.443,3.521c0.972,1.399,2.529,2.149,4.113,2.149c0.982,0,1.977-0.289,2.846-0.892     C278.473,165.544,279.037,162.429,277.462,160.159z" fill="#FFDA44"/>
		</g>
		<path d="M198.387,273.208c-1.345-2.414-3.223-4.412-5.474-5.881l4.712-16.563c0.756-2.656-0.785-5.422-3.441-6.178    c-2.655-0.754-5.422,0.784-6.177,3.441l-4.716,16.575c-7.288,0.185-13.718,5.135-15.724,12.183    c-2.533,8.905,2.651,18.211,11.557,20.745c1.502,0.427,3.048,0.643,4.599,0.643c7.462,0,14.101-5.018,16.145-12.201    C201.097,281.66,200.57,277.127,198.387,273.208z M190.251,283.237c-0.827,2.907-3.511,4.938-6.527,4.938    c-0.625,0-1.252-0.089-1.863-0.263c-3.602-1.025-5.699-4.789-4.674-8.391c0.827-2.905,3.511-4.936,6.526-4.936    c0.626,0,1.253,0.089,1.863,0.263c1.746,0.496,3.193,1.643,4.076,3.228C190.535,279.66,190.747,281.493,190.251,283.237z" fill="#FFDA44"/>
		<path d="M376.73,225.854c-4.076-7.853-11.877-14.199-23.184-18.864l-67.962-28.036c-0.718-0.773-1.452-1.523-2.2-2.248    c19.994-15.41,32.788-38.803,32.788-64.967c0-14.866-4.132-28.839-11.363-40.964l6.358-5.019c2.757,1.893,6.031,2.947,9.482,2.947    c3.753,0,7.443-1.282,10.395-3.611c7.266-5.737,8.512-16.316,2.777-23.583c-3.204-4.061-8.011-6.39-13.188-6.39    c-3.754,0-7.446,1.283-10.397,3.612c-3.521,2.777-5.748,6.761-6.272,11.215c-0.323,2.744,0.029,5.464,0.993,7.972l-5.79,4.57    c-16.231-21.022-42.554-34.719-72.216-34.719c-13.251,0-25.835,2.736-37.152,7.635l-3.594-6.785    c1.894-1.905,3.314-4.251,4.126-6.893c1.318-4.287,0.888-8.83-1.212-12.793C186.2,3.423,180.511,0,174.272,0    c-2.72,0-5.434,0.677-7.85,1.955c-8.181,4.333-11.312,14.515-6.978,22.699c2.919,5.51,8.608,8.932,14.847,8.932    c1.032,0,2.062-0.098,3.076-0.288l3.482,6.574c-25.826,14.728-43.121,41.432-43.121,71.866c0,26.164,12.794,49.557,32.79,64.967    c-0.749,0.725-1.483,1.477-2.202,2.248l-67.962,28.036c-11.307,4.665-19.107,11.012-23.183,18.864    c-3.84,7.397-4.086,15.628-0.713,23.803c3.372,8.176,9.35,13.839,17.288,16.377c3.079,0.984,6.367,1.476,9.853,1.476    c6.057,0,12.71-1.483,19.886-4.444l24.241-10c-0.73,23.37,2.501,46.76,9.71,69.969c0.011,0.035,0.022,0.071,0.034,0.107    c1.597,4.761,4.94,10.112,9.006,14.876l-22.283,68.46c-3.786,11.631-4.016,21.684-0.685,29.88    c3.139,7.722,9.243,13.249,17.652,15.985c3.202,1.042,6.371,1.56,9.459,1.56c5.023,0,9.833-1.372,14.219-4.094    c7.518-4.665,13.249-12.927,17.033-24.557l20.995-64.504c1.361,0.058,2.722,0.097,4.083,0.097c1.361,0,2.721-0.039,4.082-0.096    l20.994,64.502c3.785,11.631,9.517,19.893,17.034,24.558c4.386,2.722,9.195,4.094,14.22,4.094c3.088,0,6.257-0.518,9.458-1.56    c8.41-2.736,14.515-8.264,17.652-15.985c3.331-8.196,3.1-18.249-0.685-29.88l-22.282-68.461c4.066-4.764,7.41-10.114,9.006-14.875    c0.012-0.035,0.023-0.071,0.035-0.107c7.209-23.209,10.439-46.599,9.71-69.969l24.24,10c7.177,2.961,13.828,4.444,19.886,4.444    c3.485,0,6.774-0.491,9.853-1.476c7.939-2.538,13.917-8.201,17.289-16.376C380.816,241.482,380.57,233.25,376.73,225.854z     M313.896,51.116c0.212-1.801,1.112-3.411,2.536-4.535c1.212-0.956,2.665-1.462,4.202-1.462c2.096,0,4.041,0.942,5.338,2.585    c2.319,2.938,1.815,7.219-1.124,9.539c-1.21,0.955-2.662,1.46-4.198,1.46c-2.097,0-4.043-0.942-5.34-2.587    C314.186,54.693,313.684,52.917,313.896,51.116z M180.773,18.788c-0.533,1.734-1.71,3.156-3.313,4.006    c-0.993,0.525-2.059,0.792-3.169,0.792c-2.526,0-4.83-1.385-6.01-3.612c-1.753-3.311-0.487-7.429,2.822-9.182    c0.993-0.525,2.059-0.792,3.169-0.792c2.527,0,4.831,1.386,6.012,3.615C181.132,15.217,181.306,17.055,180.773,18.788z     M110.962,256.61c-5.378,1.191-10.186,1.173-14.17-0.103c-5.114-1.635-8.845-5.223-11.09-10.665    c-2.245-5.441-2.129-10.616,0.344-15.383c2.586-4.98,7.808-9.41,15.184-12.921c1.133,1.185,2.593,2.853,4.104,4.955l-1.862,0.725    c-2.573,1.002-3.848,3.899-2.847,6.473c0.77,1.979,2.659,3.188,4.661,3.188c0.603,0,1.216-0.109,1.812-0.341l3.155-1.227    c0.949,2.311,1.725,4.837,2.208,7.552l-4.252,1.654c-2.573,1.002-3.848,3.899-2.847,6.473c0.77,1.979,2.659,3.189,4.661,3.189    c0.603,0,1.216-0.109,1.812-0.341l0.841-0.327C112.362,251.798,111.812,254.166,110.962,256.61z M157.47,195.877    c-0.012,0.034-0.023,0.069-0.034,0.105c-4.744,15.274-7.76,30.626-9.066,45.999l-26.109,10.771    c0.443-2.473,0.673-4.893,0.705-7.245l4.91-1.91c2.573-1.002,3.848-3.899,2.847-6.473c-1.002-2.574-3.898-3.849-6.473-2.848    l-2.347,0.913c-0.582-2.633-1.378-5.14-2.324-7.506l3.562-1.386c2.573-1.002,3.848-3.899,2.847-6.473    c-1.001-2.575-3.9-3.848-6.473-2.848l-4.556,1.772c-1.262-1.963-2.589-3.756-3.921-5.35l47.171-19.46    C157.934,194.596,157.682,195.244,157.47,195.877z M166.969,199.005c1.711-5.058,6.698-11.815,12.012-16.518    c12.546,7.56,27.215,12.262,42.971,13.085v11.384h-5.481c-2.761,0-5,2.238-5,5s2.239,5,5,5h5.481v20.101h-5.481    c-2.761,0-5,2.238-5,5s2.239,5,5,5h5.481v20.101h-5.481c-2.761,0-5,2.238-5,5c0,2.762,2.239,5,5,5h5.481v20.102h-5.481    c-2.761,0-5,2.238-5,5c0,2.762,2.239,5,5,5h5.481v20.101h-5.481c-2.761,0-5,2.238-5,5c0,2.762,2.239,5,5,5h5.481v13.427    c-12.344-0.72-24.705-4.1-37.219-10.147c-6.736-3.481-15.34-13.473-17.764-20.628C154.511,279.864,154.511,239.15,166.969,199.005    z M179.567,441.311c-4.562,2.831-9.714,3.342-15.311,1.52c-5.597-1.821-9.461-5.267-11.482-10.241    c-2.117-5.208-2.096-12.07,0.029-19.979c1.695-0.129,4.006-0.216,6.695-0.084l-1.005,3.372c-0.789,2.646,0.718,5.431,3.364,6.22    c0.476,0.142,0.957,0.209,1.43,0.209c2.154,0,4.143-1.403,4.79-3.573l1.414-4.746c2.353,0.607,4.765,1.44,7.149,2.553    l-2.152,4.764c-1.137,2.517-0.018,5.479,2.498,6.615c0.668,0.302,1.367,0.444,2.056,0.444c1.905,0,3.725-1.094,4.56-2.942    l1.515-3.354c1.821,1.607,3.544,3.472,5.116,5.634C187.419,434.041,183.789,438.691,179.567,441.311z M194.098,416.831    c-1.512-1.555-3.082-2.965-4.704-4.209l2.474-5.476c1.137-2.517,0.019-5.479-2.498-6.615c-2.517-1.136-5.479-0.019-6.615,2.498    l-1.986,4.397c-2.818-1.298-5.656-2.273-8.421-2.999l1.24-4.163c0.789-2.647-0.718-5.431-3.364-6.22    c-2.646-0.789-5.431,0.718-6.22,3.364l-1.584,5.316c-2.353-0.206-4.507-0.26-6.41-0.239l18.459-56.71    c1.923,1.519,3.864,2.819,5.749,3.786c0.034,0.017,0.069,0.034,0.104,0.052c10.74,5.197,21.533,8.587,32.342,10.176    L194.098,416.831z M147.728,111.738c0-26.62,15.144-49.993,37.806-63.023l6.777,12.792c0.897,1.694,2.63,2.66,4.423,2.66    c0.789,0,1.59-0.188,2.337-0.583c2.44-1.292,3.37-4.318,2.078-6.759l-6.644-12.54c9.911-4.173,20.889-6.516,32.448-6.516    c43.683,0,79.221,33.183,79.221,73.969c0,40.786-35.538,73.969-79.221,73.969C183.268,185.707,147.728,152.525,147.728,111.738z     M301.128,432.591c-2.021,4.974-5.885,8.419-11.483,10.24c-5.597,1.824-10.748,1.311-15.311-1.52    c-4.221-2.62-7.851-7.27-10.665-13.588c1.572-2.162,3.295-4.026,5.116-5.634l1.515,3.354c0.835,1.849,2.654,2.942,4.56,2.942    c0.689,0,1.388-0.143,2.056-0.444c2.517-1.137,3.635-4.099,2.498-6.615l-2.152-4.765c2.385-1.113,4.797-1.946,7.149-2.553    l1.414,4.747c0.646,2.17,2.636,3.573,4.79,3.573c0.473,0,0.953-0.067,1.43-0.209c2.646-0.789,4.152-3.573,3.364-6.22l-1.005-3.372    c2.688-0.132,4.999-0.045,6.694,0.084C303.223,420.52,303.245,427.382,301.128,432.591z M291.482,402.724l-1.584-5.315    c-0.789-2.646-3.571-4.153-6.22-3.364c-2.647,0.789-4.152,3.573-3.364,6.22l1.24,4.162c-2.765,0.726-5.602,1.701-8.42,2.999    l-1.985-4.396c-1.137-2.517-4.097-3.633-6.615-2.498c-2.517,1.137-3.635,4.099-2.498,6.615l2.473,5.475    c-1.622,1.244-3.193,2.651-4.706,4.205l-18.564-57.037c10.81-1.589,21.603-4.978,32.343-10.176    c0.035-0.018,0.07-0.034,0.105-0.053c1.885-0.967,3.825-2.267,5.748-3.785l18.457,56.709    C295.989,402.463,293.834,402.518,291.482,402.724z M286.932,320.011c-2.423,7.153-11.027,17.145-17.763,20.628    c-12.513,6.048-24.874,9.428-37.218,10.147v-13.427h5.478c2.762,0,5-2.238,5-5c0-2.762-2.238-5-5-5h-5.478v-20.101h5.478    c2.762,0,5-2.238,5-5c0-2.762-2.238-5-5-5h-5.478v-20.102h5.478c2.762,0,5-2.238,5-5c0-2.762-2.238-5-5-5h-5.478v-20.101h5.478    c2.762,0,5-2.238,5-5s-2.238-5-5-5h-5.478v-20.101h5.478c2.762,0,5-2.238,5-5s-2.238-5-5-5h-5.478v-11.384    c15.756-0.823,30.424-5.525,42.969-13.084c5.311,4.7,10.298,11.458,12.013,16.518C299.39,239.151,299.39,279.864,286.932,320.011z     M334.386,216.978c-2.574-0.998-5.472,0.273-6.474,2.847c-1.001,2.574,0.273,5.472,2.847,6.474l3.564,1.387    c-0.947,2.366-1.74,4.874-2.323,7.506l-2.351-0.914c-2.57-0.999-5.471,0.273-6.473,2.848c-1.001,2.573,0.273,5.471,2.848,6.473    l4.908,1.909c0.031,2.352,0.258,4.771,0.702,7.243l-26.103-10.769c-1.307-15.373-4.322-30.726-9.066-45.999    c-0.012-0.036-0.023-0.071-0.035-0.107c-0.212-0.632-0.464-1.279-0.739-1.935l47.175,19.461c-1.334,1.595-2.664,3.381-3.93,5.348    L334.386,216.978z M368.199,245.844c-2.244,5.441-5.976,9.029-11.091,10.664c-3.982,1.275-8.79,1.294-14.166,0.103    c-0.851-2.449-1.413-4.821-1.734-7.107l0.859,0.334c0.596,0.231,1.208,0.341,1.812,0.341c2.001,0,3.892-1.21,4.661-3.189    c1.001-2.573-0.273-5.471-2.848-6.473l-4.307-1.676c0.476-2.719,1.244-5.248,2.19-7.558l3.225,1.255    c0.597,0.231,1.209,0.341,1.813,0.341c2.001,0,3.892-1.21,4.661-3.188c1.001-2.574-0.273-5.472-2.847-6.474l-1.909-0.743    c1.516-2.094,2.989-3.759,4.135-4.944c7.386,3.513,12.613,7.944,15.201,12.93C370.329,235.227,370.444,240.401,368.199,245.844z" fill="#FFDA44"/>
	</g>
</g>
<g>
</g>
<g>
</g>
<g>
</g>
<g>
</g>
<g>
</g>
<g>
</g>
<g>
</g>
<g>
</g>
<g>
</g>
<g>
</g>
<g>
</g>
<g>
</g>
<g>
</g>
<g>
</g>
<g>
</g>
</svg>
